<svg width="129" height="21" viewBox="0 0 129 21" fill="none" xmlns="http://www.w3.org/2000/svg">
<path d="M4.06543 1.51562V20H0.878906V1.51562H4.06543ZM11.6064 9.60254V12.1289H3.25293V9.60254H11.6064ZM12.6602 1.51562V4.05469H3.25293V1.51562H12.6602ZM18.1699 0.5V20H15.0977V0.5H18.1699ZM29.2656 17.2451V10.6943C29.2656 10.2035 29.1768 9.78027 28.999 9.4248C28.8213 9.06934 28.5505 8.79427 28.1865 8.59961C27.8311 8.40495 27.3825 8.30762 26.8408 8.30762C26.3415 8.30762 25.9098 8.39225 25.5459 8.56152C25.182 8.73079 24.8984 8.95931 24.6953 9.24707C24.4922 9.53483 24.3906 9.86068 24.3906 10.2246H21.3438C21.3438 9.68294 21.4749 9.1582 21.7373 8.65039C21.9997 8.14258 22.3805 7.68978 22.8799 7.29199C23.3792 6.89421 23.9759 6.58105 24.6699 6.35254C25.3639 6.12402 26.1426 6.00977 27.0059 6.00977C28.0384 6.00977 28.9525 6.18327 29.748 6.53027C30.5521 6.87728 31.1826 7.40202 31.6396 8.10449C32.1051 8.7985 32.3379 9.67025 32.3379 10.7197V16.8262C32.3379 17.4525 32.3802 18.0153 32.4648 18.5146C32.5579 19.0055 32.6891 19.4329 32.8584 19.7969V20H29.7227C29.5788 19.6699 29.4645 19.251 29.3799 18.7432C29.3037 18.2269 29.2656 17.7275 29.2656 17.2451ZM29.71 11.6465L29.7354 13.5381H27.5391C26.972 13.5381 26.4727 13.5931 26.041 13.7031C25.6094 13.8047 25.2497 13.957 24.9619 14.1602C24.6742 14.3633 24.4583 14.6087 24.3145 14.8965C24.1706 15.1842 24.0986 15.5101 24.0986 15.874C24.0986 16.238 24.1833 16.5723 24.3525 16.877C24.5218 17.1732 24.7673 17.4059 25.0889 17.5752C25.4189 17.7445 25.8167 17.8291 26.2822 17.8291C26.9085 17.8291 27.4544 17.7021 27.9199 17.4482C28.3939 17.1859 28.7663 16.8685 29.0371 16.4961C29.3079 16.1152 29.4518 15.7555 29.4688 15.417L30.459 16.7754C30.3574 17.1224 30.1839 17.4948 29.9385 17.8926C29.693 18.2904 29.3714 18.6712 28.9736 19.0352C28.5843 19.3906 28.1146 19.6826 27.5645 19.9111C27.0228 20.1396 26.3965 20.2539 25.6855 20.2539C24.7884 20.2539 23.9886 20.0762 23.2861 19.7207C22.5837 19.3568 22.0335 18.8701 21.6357 18.2607C21.238 17.6429 21.0391 16.9447 21.0391 16.166C21.0391 15.4382 21.1745 14.7949 21.4453 14.2363C21.7246 13.6693 22.1309 13.1953 22.6641 12.8145C23.2057 12.4336 23.8659 12.1458 24.6445 11.9512C25.4232 11.748 26.3118 11.6465 27.3105 11.6465H29.71ZM43.2432 16.2803C43.2432 15.9756 43.167 15.7005 43.0146 15.4551C42.8623 15.2012 42.5703 14.9727 42.1387 14.7695C41.7155 14.5664 41.0892 14.3802 40.2598 14.2109C39.5319 14.0501 38.8633 13.8597 38.2539 13.6396C37.653 13.4111 37.1367 13.1361 36.7051 12.8145C36.2734 12.4928 35.9391 12.112 35.7021 11.6719C35.4652 11.2318 35.3467 10.724 35.3467 10.1484C35.3467 9.58984 35.4694 9.06087 35.7148 8.56152C35.9603 8.06217 36.3115 7.62207 36.7686 7.24121C37.2256 6.86035 37.7799 6.5599 38.4316 6.33984C39.0918 6.11979 39.8281 6.00977 40.6406 6.00977C41.7917 6.00977 42.7777 6.20443 43.5986 6.59375C44.4281 6.97461 45.0628 7.49512 45.5029 8.15527C45.943 8.80697 46.1631 9.54329 46.1631 10.3643H43.1035C43.1035 10.0003 43.0104 9.66178 42.8242 9.34863C42.6465 9.02702 42.3757 8.76888 42.0117 8.57422C41.6478 8.37109 41.1908 8.26953 40.6406 8.26953C40.1159 8.26953 39.68 8.35417 39.333 8.52344C38.9945 8.68424 38.7406 8.89583 38.5713 9.1582C38.4105 9.42057 38.3301 9.70833 38.3301 10.0215C38.3301 10.25 38.3724 10.4574 38.457 10.6436C38.5501 10.8213 38.7025 10.9863 38.9141 11.1387C39.1257 11.2826 39.4134 11.418 39.7773 11.5449C40.1497 11.6719 40.6152 11.7946 41.1738 11.9131C42.2233 12.1331 43.1247 12.4167 43.8779 12.7637C44.6396 13.1022 45.2236 13.5423 45.6299 14.084C46.0361 14.6172 46.2393 15.2943 46.2393 16.1152C46.2393 16.7246 46.1081 17.2832 45.8457 17.791C45.5918 18.2904 45.2194 18.7262 44.7285 19.0986C44.2376 19.4626 43.6494 19.7461 42.9639 19.9492C42.2868 20.1523 41.5251 20.2539 40.6787 20.2539C39.4346 20.2539 38.3809 20.0339 37.5176 19.5938C36.6543 19.1452 35.9984 18.5739 35.5498 17.8799C35.1097 17.1774 34.8896 16.4495 34.8896 15.6963H37.8477C37.8815 16.2633 38.0381 16.7161 38.3174 17.0547C38.6051 17.3848 38.9606 17.626 39.3838 17.7783C39.8154 17.9222 40.2598 17.9941 40.7168 17.9941C41.2669 17.9941 41.7282 17.9222 42.1006 17.7783C42.473 17.626 42.7565 17.4229 42.9512 17.1689C43.1458 16.9066 43.2432 16.6104 43.2432 16.2803ZM51.9395 0.5V20H48.8926V0.5H51.9395ZM51.4062 12.624L50.416 12.6113C50.4245 11.6634 50.5557 10.7874 50.8096 9.9834C51.0719 9.17936 51.4359 8.48112 51.9014 7.88867C52.3753 7.28776 52.9424 6.8265 53.6025 6.50488C54.2627 6.1748 54.9948 6.00977 55.7988 6.00977C56.4759 6.00977 57.0853 6.10286 57.627 6.28906C58.1771 6.47526 58.651 6.77572 59.0488 7.19043C59.4466 7.59668 59.7471 8.12988 59.9502 8.79004C60.1618 9.44173 60.2676 10.2373 60.2676 11.1768V20H57.1953V11.1514C57.1953 10.4912 57.098 9.96647 56.9033 9.57715C56.7171 9.18783 56.4421 8.90853 56.0781 8.73926C55.7142 8.56152 55.2699 8.47266 54.7451 8.47266C54.195 8.47266 53.7083 8.58268 53.2852 8.80273C52.8704 9.02279 52.5234 9.32324 52.2441 9.7041C51.9648 10.085 51.7533 10.5251 51.6094 11.0244C51.474 11.5238 51.4062 12.057 51.4062 12.624Z" fill="white"/>
<path d="M74.5879 13.9824H77.7617C77.6602 15.1927 77.3216 16.2718 76.7461 17.2197C76.1706 18.1592 75.3623 18.8997 74.3213 19.4414C73.2803 19.9831 72.015 20.2539 70.5254 20.2539C69.3828 20.2539 68.3545 20.0508 67.4404 19.6445C66.5264 19.2298 65.7435 18.6458 65.0918 17.8926C64.4401 17.1309 63.9408 16.2126 63.5938 15.1377C63.2552 14.0628 63.0859 12.861 63.0859 11.5322V9.99609C63.0859 8.66732 63.2594 7.46549 63.6064 6.39062C63.9619 5.31576 64.4697 4.39746 65.1299 3.63574C65.79 2.86556 66.5814 2.27734 67.5039 1.87109C68.4349 1.46484 69.4801 1.26172 70.6396 1.26172C72.1123 1.26172 73.3564 1.53255 74.3721 2.07422C75.3877 2.61589 76.1748 3.36491 76.7334 4.32129C77.3005 5.27767 77.6475 6.3737 77.7744 7.60938H74.6006C74.516 6.8138 74.3298 6.13249 74.042 5.56543C73.7627 4.99837 73.348 4.56673 72.7979 4.27051C72.2477 3.96582 71.5283 3.81348 70.6396 3.81348C69.9118 3.81348 69.277 3.94889 68.7354 4.21973C68.1937 4.49056 67.7409 4.88835 67.377 5.41309C67.013 5.93783 66.738 6.58529 66.5518 7.35547C66.374 8.11719 66.2852 8.98893 66.2852 9.9707V11.5322C66.2852 12.4632 66.3656 13.3096 66.5264 14.0713C66.6956 14.8245 66.9495 15.472 67.2881 16.0137C67.6351 16.5553 68.0752 16.9743 68.6084 17.2705C69.1416 17.5667 69.7806 17.7148 70.5254 17.7148C71.431 17.7148 72.1631 17.571 72.7217 17.2832C73.2887 16.9954 73.7161 16.5765 74.0039 16.0264C74.3001 15.4678 74.4948 14.7865 74.5879 13.9824ZM88.0957 17.2451V10.6943C88.0957 10.2035 88.0068 9.78027 87.8291 9.4248C87.6514 9.06934 87.3805 8.79427 87.0166 8.59961C86.6611 8.40495 86.2126 8.30762 85.6709 8.30762C85.1715 8.30762 84.7399 8.39225 84.376 8.56152C84.012 8.73079 83.7285 8.95931 83.5254 9.24707C83.3223 9.53483 83.2207 9.86068 83.2207 10.2246H80.1738C80.1738 9.68294 80.305 9.1582 80.5674 8.65039C80.8298 8.14258 81.2106 7.68978 81.71 7.29199C82.2093 6.89421 82.806 6.58105 83.5 6.35254C84.194 6.12402 84.9727 6.00977 85.8359 6.00977C86.8685 6.00977 87.7826 6.18327 88.5781 6.53027C89.3822 6.87728 90.0127 7.40202 90.4697 8.10449C90.9352 8.7985 91.168 9.67025 91.168 10.7197V16.8262C91.168 17.4525 91.2103 18.0153 91.2949 18.5146C91.388 19.0055 91.5192 19.4329 91.6885 19.7969V20H88.5527C88.4089 19.6699 88.2946 19.251 88.21 18.7432C88.1338 18.2269 88.0957 17.7275 88.0957 17.2451ZM88.54 11.6465L88.5654 13.5381H86.3691C85.8021 13.5381 85.3027 13.5931 84.8711 13.7031C84.4395 13.8047 84.0798 13.957 83.792 14.1602C83.5042 14.3633 83.2884 14.6087 83.1445 14.8965C83.0007 15.1842 82.9287 15.5101 82.9287 15.874C82.9287 16.238 83.0133 16.5723 83.1826 16.877C83.3519 17.1732 83.5973 17.4059 83.9189 17.5752C84.249 17.7445 84.6468 17.8291 85.1123 17.8291C85.7386 17.8291 86.2845 17.7021 86.75 17.4482C87.224 17.1859 87.5964 16.8685 87.8672 16.4961C88.138 16.1152 88.2819 15.7555 88.2988 15.417L89.2891 16.7754C89.1875 17.1224 89.014 17.4948 88.7686 17.8926C88.5231 18.2904 88.2015 18.6712 87.8037 19.0352C87.4144 19.3906 86.9447 19.6826 86.3945 19.9111C85.8529 20.1396 85.2266 20.2539 84.5156 20.2539C83.6185 20.2539 82.8187 20.0762 82.1162 19.7207C81.4137 19.3568 80.8636 18.8701 80.4658 18.2607C80.068 17.6429 79.8691 16.9447 79.8691 16.166C79.8691 15.4382 80.0046 14.7949 80.2754 14.2363C80.5547 13.6693 80.9609 13.1953 81.4941 12.8145C82.0358 12.4336 82.696 12.1458 83.4746 11.9512C84.2533 11.748 85.1419 11.6465 86.1406 11.6465H88.54ZM97.4395 8.87891V20H94.3799V6.26367H97.2998L97.4395 8.87891ZM101.642 6.1748L101.616 9.01855C101.43 8.9847 101.227 8.95931 101.007 8.94238C100.795 8.92546 100.584 8.91699 100.372 8.91699C99.8473 8.91699 99.3861 8.99316 98.9883 9.14551C98.5905 9.28939 98.2562 9.50098 97.9854 9.78027C97.723 10.0511 97.5199 10.3812 97.376 10.7705C97.2321 11.1598 97.1475 11.5957 97.1221 12.0781L96.4238 12.1289C96.4238 11.2656 96.5085 10.4658 96.6777 9.72949C96.847 8.99316 97.1009 8.3457 97.4395 7.78711C97.7865 7.22852 98.2181 6.79264 98.7344 6.47949C99.2591 6.16634 99.8643 6.00977 100.55 6.00977C100.736 6.00977 100.935 6.02669 101.146 6.06055C101.367 6.0944 101.532 6.13249 101.642 6.1748ZM111.684 17.1562V0.5H114.756V20H111.976L111.684 17.1562ZM102.746 13.2842V13.0176C102.746 11.9766 102.869 11.0286 103.114 10.1738C103.36 9.31055 103.715 8.56999 104.181 7.95215C104.646 7.32585 105.213 6.84766 105.882 6.51758C106.55 6.17904 107.304 6.00977 108.142 6.00977C108.971 6.00977 109.699 6.17057 110.325 6.49219C110.951 6.8138 111.485 7.27507 111.925 7.87598C112.365 8.46842 112.716 9.17936 112.979 10.0088C113.241 10.8298 113.427 11.7438 113.537 12.751V13.6016C113.427 14.5833 113.241 15.4805 112.979 16.293C112.716 17.1055 112.365 17.8079 111.925 18.4004C111.485 18.9928 110.947 19.4499 110.312 19.7715C109.686 20.0931 108.954 20.2539 108.116 20.2539C107.287 20.2539 106.538 20.0804 105.869 19.7334C105.209 19.3864 104.646 18.8997 104.181 18.2734C103.715 17.6471 103.36 16.9108 103.114 16.0645C102.869 15.2096 102.746 14.2829 102.746 13.2842ZM105.806 13.0176V13.2842C105.806 13.9105 105.861 14.4945 105.971 15.0361C106.089 15.5778 106.271 16.056 106.517 16.4707C106.762 16.877 107.079 17.1986 107.469 17.4355C107.867 17.6641 108.34 17.7783 108.891 17.7783C109.585 17.7783 110.156 17.626 110.604 17.3213C111.053 17.0166 111.404 16.6061 111.658 16.0898C111.921 15.5651 112.098 14.9811 112.191 14.3379V12.04C112.141 11.5407 112.035 11.0752 111.874 10.6436C111.722 10.2119 111.514 9.83529 111.252 9.51367C110.99 9.18359 110.664 8.92969 110.274 8.75195C109.894 8.56576 109.441 8.47266 108.916 8.47266C108.357 8.47266 107.883 8.59115 107.494 8.82812C107.105 9.0651 106.783 9.39095 106.529 9.80566C106.284 10.2204 106.102 10.7028 105.983 11.2529C105.865 11.8031 105.806 12.3913 105.806 13.0176ZM125.661 16.2803C125.661 15.9756 125.585 15.7005 125.433 15.4551C125.28 15.2012 124.988 14.9727 124.557 14.7695C124.133 14.5664 123.507 14.3802 122.678 14.2109C121.95 14.0501 121.281 13.8597 120.672 13.6396C120.071 13.4111 119.555 13.1361 119.123 12.8145C118.691 12.4928 118.357 12.112 118.12 11.6719C117.883 11.2318 117.765 10.724 117.765 10.1484C117.765 9.58984 117.887 9.06087 118.133 8.56152C118.378 8.06217 118.729 7.62207 119.187 7.24121C119.644 6.86035 120.198 6.5599 120.85 6.33984C121.51 6.11979 122.246 6.00977 123.059 6.00977C124.21 6.00977 125.196 6.20443 126.017 6.59375C126.846 6.97461 127.481 7.49512 127.921 8.15527C128.361 8.80697 128.581 9.54329 128.581 10.3643H125.521C125.521 10.0003 125.428 9.66178 125.242 9.34863C125.064 9.02702 124.794 8.76888 124.43 8.57422C124.066 8.37109 123.609 8.26953 123.059 8.26953C122.534 8.26953 122.098 8.35417 121.751 8.52344C121.412 8.68424 121.159 8.89583 120.989 9.1582C120.828 9.42057 120.748 9.70833 120.748 10.0215C120.748 10.25 120.79 10.4574 120.875 10.6436C120.968 10.8213 121.12 10.9863 121.332 11.1387C121.544 11.2826 121.831 11.418 122.195 11.5449C122.568 11.6719 123.033 11.7946 123.592 11.9131C124.641 12.1331 125.543 12.4167 126.296 12.7637C127.058 13.1022 127.642 13.5423 128.048 14.084C128.454 14.6172 128.657 15.2943 128.657 16.1152C128.657 16.7246 128.526 17.2832 128.264 17.791C128.01 18.2904 127.637 18.7262 127.146 19.0986C126.656 19.4626 126.067 19.7461 125.382 19.9492C124.705 20.1523 123.943 20.2539 123.097 20.2539C121.853 20.2539 120.799 20.0339 119.936 19.5938C119.072 19.1452 118.416 18.5739 117.968 17.8799C117.528 17.1774 117.308 16.4495 117.308 15.6963H120.266C120.299 16.2633 120.456 16.7161 120.735 17.0547C121.023 17.3848 121.379 17.626 121.802 17.7783C122.233 17.9222 122.678 17.9941 123.135 17.9941C123.685 17.9941 124.146 17.9222 124.519 17.7783C124.891 17.626 125.174 17.4229 125.369 17.1689C125.564 16.9066 125.661 16.6104 125.661 16.2803Z" fill="#8C61FF"/>
</svg>
